<svg width="1024" height="1024" viewBox="0 0 1024 1024" fill="none" xmlns="http://www.w3.org/2000/svg">
<g clip-path="url(#clip0_2_2)">
<path fill-rule="evenodd" clip-rule="evenodd" d="M726.872 1023.23C760.232 1018.79 790.195 1005.29 811.968 984.874C832.266 965.843 841.386 944.311 843.234 911.059C846.572 851.013 818.828 810.029 762.15 791.278C751.567 787.777 718.765 781.207 689.26 776.677C659.755 772.151 630.189 766.175 623.56 763.398C598.962 753.095 587.359 735.906 587.379 709.793C587.398 682.919 603.876 662.493 633.868 652.168C652.706 645.681 719.41 646.674 737.876 653.711C757.378 661.143 771.45 672.552 777.884 686.146L783.297 697.578L818.424 697.578C858.704 697.578 858.483 697.796 847.48 668.775C834.607 634.815 802.325 607.433 759.078 593.793C739.559 587.64 729.306 586.676 683.577 586.689C641.392 586.705 626.787 587.9 611.556 592.6C568.011 606.028 541.768 626.505 527.057 658.526C516.166 682.241 513.482 726.243 521.288 753.156C536.172 804.474 577.555 828.115 677.163 842.188C732.462 850 750.069 855.314 761.999 867.796C778.108 884.651 777.229 920.745 760.238 940.145C745.611 956.842 724.663 962.779 680.37 962.783C645.801 962.786 642.283 962.181 624.247 953.142C611.351 946.68 602.448 939.521 597.25 931.443L589.498 919.388L553.413 919.388L517.327 919.388L520.556 931.443C525.537 950.04 537.14 967.955 555.128 984.819C585.211 1013.02 625.687 1025.67 683.577 1024.93C702.098 1024.7 721.581 1023.93 726.872 1023.23ZM361.612 1020.74C390.604 1015.47 421.908 1000.52 442.144 982.279C458.43 967.601 478.326 934.979 478.326 922.956C478.326 916.488 476.771 916.173 444.867 916.173C414.679 916.173 411.219 916.778 409.455 922.352C406.129 932.854 383.843 950.425 364.774 957.575C351.32 962.622 339.278 964.393 318.435 964.393C279.332 964.393 259.275 957.883 240.565 939.123C222.99 921.5 218.597 908.41 218.574 873.579L218.555 848.666L285.101 848.602C360.005 848.531 387.377 845.554 414.628 834.521C449.302 820.483 470.789 799.736 484.362 767.191C495.635 740.159 495.93 692.695 484.997 664.515C475.01 638.775 448.901 611.078 424.105 599.923C370.342 575.739 296.669 583.204 253.884 617.17C240.405 627.871 223.427 652.483 220.037 666.235C215.278 685.552 212.141 673.098 212.141 634.892L212.141 594.709L180.071 594.709L148 594.709L148.048 748.208C148.099 914.09 149.331 928.752 165.552 956.498C196.426 1009.31 277.847 1035.99 361.612 1020.74ZM218.587 756.245C218.613 723.224 219.572 716.451 226.21 702.4C243.676 665.434 285.31 643.202 337.434 643.006C393.926 642.797 423.806 669.649 423.806 720.627C423.806 754.885 401.607 782.962 368.222 790.934C362.635 792.268 326.674 793.506 288.308 793.689L218.555 794.017L218.587 756.245ZM663.95 558.94C686.666 555.156 716.793 538.774 728.668 523.746C746.548 501.115 748.937 491.435 750.803 433.977L752.529 380.935L814.264 380.061L876 379.19L876 348.789L876 318.388L814.264 317.517L752.529 316.642L751.698 158.321L750.864 0.000104977L717.251 0.00010203L683.638 9.90828e-05L682.804 158.321L681.974 316.642L596.185 317.498L510.397 318.356L510.397 348.789L510.397 379.222L596.185 380.08L681.974 380.935L681.974 422.726C681.974 496.273 681.935 496.302 583.357 497.685L510.397 498.704L510.397 530.635L510.397 562.563L578.546 562.187C616.027 561.981 654.46 560.518 663.95 558.94ZM358.552 437.108C417.524 426.445 459.263 391.846 478.881 337.364C486.068 317.407 486.344 313.074 486.344 220.203C486.344 127.332 486.068 122.999 478.881 103.042C453.225 31.7896 389 -5.17555 301.938 1.19908C233.449 6.21713 182.578 35.2422 160.37 81.9735L151.204 101.261L185.086 102.174L218.969 103.09L234.469 89.1228C254.888 70.719 280.788 62.5956 317.974 62.9299C351.638 63.2321 372.987 71.603 391.527 91.7653C410.317 112.198 414.746 125.082 416.6 164.715L418.213 199.237L283.908 200.076L149.604 200.915L148.693 244.313C148.189 268.182 149.325 297.837 151.214 310.213C155.043 335.313 168.58 367.154 183.38 385.889C196.917 403.02 227.949 422.999 253.352 430.939C277.873 438.606 332.55 441.811 358.552 437.108ZM278.767 372.748C260.628 367.704 240.472 350.554 230.155 331.382C222.574 317.289 220.617 309.072 219.286 285.685L217.667 257.171L317.922 257.171L418.178 257.172L416.748 285.3C414.743 324.817 403.063 346.85 374.434 365.11C353.973 378.164 310.678 381.62 278.767 372.748Z" fill="#44DD00"/>
</g>
<defs>
<clipPath id="clip0_2_2">
<rect width="1024" height="1024" fill="white"/>
</clipPath>
</defs>
</svg>
