<svg width="128" height="128" viewBox="0 0 128 128" fill="none" xmlns="http://www.w3.org/2000/svg">
<g clip-path="url(#clip0_3_23)">
<path fill-rule="evenodd" clip-rule="evenodd" d="M90.859 127.903C95.029 127.349 98.7744 125.661 101.496 123.109C104.033 120.73 105.173 118.039 105.404 113.882C105.822 106.377 102.353 101.254 95.2687 98.9098C93.9458 98.4722 89.8456 97.6508 86.1575 97.0847C82.4694 96.5189 78.7737 95.7719 77.945 95.4247C74.8703 94.1368 73.4199 91.9882 73.4223 88.7242C73.4247 85.3649 75.4844 82.8116 79.2335 81.521C81.5882 80.7101 89.9262 80.8342 92.2345 81.7138C94.6722 82.6429 96.4313 84.069 97.2354 85.7683L97.9121 87.1972L102.303 87.1972C107.338 87.1972 107.31 87.2245 105.935 83.5968C104.326 79.3519 100.291 75.9291 94.8847 74.2241C92.4449 73.455 91.1633 73.3345 85.4471 73.3361C80.1739 73.3381 78.3483 73.4876 76.4445 74.075C71.0014 75.7535 67.721 78.3131 65.8821 82.3158C64.5207 85.2801 64.1852 90.7803 65.1609 94.1445C67.0214 100.559 72.1944 103.514 84.6454 105.274C91.5578 106.25 93.7586 106.914 95.2499 108.475C97.2635 110.581 97.1537 115.093 95.0298 117.518C93.2014 119.605 90.5828 120.347 85.0462 120.348C80.7251 120.348 80.2854 120.273 78.0308 119.143C76.4189 118.335 75.306 117.44 74.6562 116.43L73.6873 114.924L69.1766 114.924L64.6658 114.924L65.0695 116.43C65.6921 118.755 67.1425 120.994 69.391 123.102C73.1513 126.628 78.2108 128.208 85.4471 128.117C87.7622 128.087 90.1976 127.991 90.859 127.903ZM45.2015 127.593C48.8254 126.933 52.7384 125.065 55.268 122.785C57.3037 120.95 59.7907 116.872 59.7907 115.37C59.7907 114.561 59.5963 114.522 55.6083 114.522C51.8348 114.522 51.4023 114.597 51.1818 115.294C50.7661 116.607 47.9804 118.803 45.5967 119.697C43.915 120.328 42.4097 120.549 39.8044 120.549C34.9165 120.549 32.4093 119.735 30.0706 117.39C27.8738 115.188 27.3246 113.551 27.3218 109.197L27.3194 106.083L35.6376 106.075C45.0006 106.066 48.4221 105.694 51.8284 104.315C56.1628 102.56 58.8487 99.967 60.5452 95.8988C61.9543 92.5199 61.9912 86.5868 60.6246 83.0644C59.3762 79.8469 56.1127 76.3848 53.013 74.9904C46.2927 71.9674 37.0836 72.9005 31.7355 77.1462C30.0506 78.4839 27.9283 81.5603 27.5046 83.2794C26.9097 85.694 26.5176 84.1373 26.5176 79.3615L26.5176 74.3386L22.5088 74.3386L18.5 74.3386L18.506 93.526C18.5124 114.261 18.6663 116.094 20.694 119.562C24.5533 126.164 34.7308 129.498 45.2015 127.593ZM27.3234 94.5306C27.3266 90.403 27.4464 89.5564 28.2763 87.8C30.4595 83.1793 35.6637 80.4002 42.1792 80.3757C49.2407 80.3496 52.9758 83.7061 52.9758 90.0783C52.9758 94.3606 50.2009 97.8702 46.0277 98.8668C45.3293 99.0335 40.8343 99.1882 36.0385 99.2111L27.3194 99.2521L27.3234 94.5306ZM82.9937 69.8675C85.8332 69.3945 89.5991 67.3468 91.0835 65.4682C93.3184 62.6393 93.6171 61.4294 93.8504 54.2471L94.0661 47.6169L101.783 47.5076L109.5 47.3987L109.5 43.5986L109.5 39.7985L101.783 39.6896L94.0661 39.5803L93.9623 19.7902L93.858 1.31221e-05L89.6564 1.27537e-05L85.4548 1.23854e-05L85.3505 19.7902L85.2467 39.5803L74.5231 39.6872L63.7996 39.7945L63.7996 43.5986L63.7996 47.4027L74.5231 47.51L85.2467 47.6169L85.2467 52.8407C85.2467 62.0342 85.2419 62.0378 72.9196 62.2106L63.7995 62.338L63.7995 66.3293L63.7995 70.3203L72.3183 70.2733C77.0034 70.2476 81.8075 70.0648 82.9937 69.8675ZM44.819 54.6385C52.1904 53.3056 57.4079 48.9807 59.8601 42.1705C60.7585 39.6759 60.7929 39.1343 60.7929 27.5254C60.7929 15.9165 60.7585 15.3748 59.8601 12.8803C56.653 3.9737 48.625 -0.646944 37.7423 0.149885C29.1811 0.777142 22.8223 4.40527 20.0462 10.2467L18.9005 12.6577L23.1358 12.7718L27.3711 12.8863L29.3085 11.1404C31.8609 8.83988 35.0985 7.82445 39.7467 7.86624C43.9547 7.90401 46.6234 8.95038 48.9409 11.4707C51.2897 14.0247 51.8433 15.6352 52.075 20.5894L52.2766 24.9047L35.4885 25.0095L18.7004 25.1144L18.5866 30.5391C18.5236 33.5227 18.6655 37.2296 18.9017 38.7766C19.3803 41.9141 21.0724 45.8943 22.9225 48.2361C24.6146 50.3775 28.4935 52.8749 31.6689 53.8674C34.7341 54.8257 41.5687 55.2264 44.819 54.6385ZM34.8459 46.5934C32.5785 45.963 30.059 43.8192 28.7694 41.4227C27.8217 39.6611 27.5771 38.634 27.4108 35.7107L27.2083 32.1464L39.7403 32.1464L52.2722 32.1464L52.0934 35.6625C51.8429 40.6022 50.3829 43.3563 46.8042 45.6387C44.2466 47.2705 38.8347 47.7025 34.8459 46.5934Z" fill="#44DD00"/>
</g>
<defs>
<clipPath id="clip0_3_23">
<rect width="128" height="128" fill="white"/>
</clipPath>
</defs>
</svg>
