<svg width="16" height="16" viewBox="0 0 16 16" fill="none" xmlns="http://www.w3.org/2000/svg">
<g clip-path="url(#clip0_3_29)">
<path fill-rule="evenodd" clip-rule="evenodd" d="M11.3574 15.9879C11.8786 15.9187 12.3468 15.7077 12.687 15.3887C13.0041 15.0913 13.1467 14.7549 13.1755 14.2353C13.2277 13.2971 12.7942 12.6567 11.9086 12.3637C11.7432 12.309 11.2307 12.2064 10.7697 12.1356C10.3087 12.0649 9.84671 11.9715 9.74313 11.9281C9.35878 11.7671 9.17749 11.4985 9.17779 11.0905C9.17809 10.6706 9.43555 10.3515 9.90418 10.1901C10.1985 10.0888 11.2408 10.1043 11.5293 10.2142C11.834 10.3304 12.0539 10.5086 12.1544 10.721L12.239 10.8997L12.7879 10.8997C13.4173 10.8997 13.4138 10.9031 13.2419 10.4496C13.0407 9.91898 12.5363 9.49114 11.8606 9.27801C11.5556 9.18188 11.3954 9.16681 10.6809 9.16701C10.0217 9.16726 9.79354 9.18594 9.55557 9.25938C8.87517 9.46918 8.46512 9.78914 8.23526 10.2895C8.06509 10.66 8.02315 11.3475 8.14512 11.7681C8.37768 12.5699 9.0243 12.9393 10.5807 13.1592C11.4447 13.2813 11.7198 13.3643 11.9062 13.5593C12.1579 13.8227 12.1442 14.3866 11.8787 14.6898C11.6502 14.9507 11.3229 15.0434 10.6308 15.0435C10.0906 15.0435 10.0357 15.0341 9.75385 14.8928C9.55236 14.7919 9.41325 14.68 9.33203 14.5538L9.21091 14.3654L8.64707 14.3654L8.08323 14.3654L8.13369 14.5538C8.21151 14.8444 8.39281 15.1243 8.67388 15.3878C9.14391 15.8285 9.77635 16.0261 10.6809 16.0146C10.9703 16.0109 11.2747 15.9989 11.3574 15.9879ZM5.65018 15.9491C6.10318 15.8667 6.5923 15.6331 6.9085 15.3481C7.16296 15.1188 7.47384 14.609 7.47384 14.4212C7.47384 14.3201 7.44954 14.3152 6.95104 14.3152C6.47935 14.3152 6.42528 14.3247 6.39772 14.4117C6.34576 14.5758 5.99754 14.8504 5.69959 14.9621C5.48938 15.041 5.30121 15.0686 4.97555 15.0686C4.36455 15.0686 4.05117 14.9669 3.75882 14.6738C3.48422 14.3984 3.41557 14.1939 3.41522 13.6497L3.41492 13.2604L4.4547 13.2594C5.62508 13.2583 6.05277 13.2118 6.47855 13.0394C7.02034 12.82 7.35608 12.4959 7.56815 11.9874C7.74429 11.565 7.7489 10.8234 7.57807 10.383C7.42203 9.98087 7.01408 9.54809 6.62663 9.3738C5.78658 8.99593 4.63545 9.11256 3.96693 9.64328C3.75632 9.81049 3.49104 10.195 3.43807 10.4099C3.36371 10.7117 3.3147 10.5172 3.3147 9.92019L3.3147 9.29233L2.8136 9.29233L2.31249 9.29233L2.31325 11.6908C2.31405 14.2827 2.33329 14.5118 2.58675 14.9453C3.06916 15.7704 4.34135 16.1873 5.65018 15.9491ZM3.41542 11.8163C3.41582 11.3004 3.4308 11.1945 3.53453 10.975C3.80743 10.3974 4.45796 10.05 5.2724 10.047C6.15509 10.0437 6.62197 10.4633 6.62197 11.2598C6.62197 11.7951 6.27511 12.2338 5.75346 12.3583C5.66617 12.3792 5.10428 12.3985 4.50481 12.4014L3.41492 12.4065L3.41542 11.8163ZM10.3742 8.73343C10.7291 8.67431 11.1999 8.41835 11.3854 8.18353C11.6648 7.82992 11.7021 7.67868 11.7313 6.78089L11.7583 5.95211L12.7229 5.93845L13.6875 5.92484L13.6875 5.44983L13.6875 4.97481L12.7229 4.9612L11.7583 4.94754L11.7453 2.47377L11.7323 1.64027e-06L11.207 1.59422e-06L10.6818 1.54817e-06L10.6688 2.47377L10.6558 4.94754L9.31539 4.9609L7.97494 4.97431L7.97494 5.44983L7.97494 5.92534L9.31539 5.93875L10.6558 5.95211L10.6558 6.60509C10.6558 7.75427 10.6552 7.75473 9.11495 7.77632L7.97494 7.79225L7.97494 8.29117L7.97494 8.79004L9.03978 8.78416C9.62542 8.78095 10.2259 8.7581 10.3742 8.73343ZM5.60238 6.82981C6.5238 6.6632 7.17599 6.12259 7.48251 5.27131C7.59481 4.95949 7.59912 4.89178 7.59912 3.44067C7.59912 1.98956 7.59481 1.92186 7.48251 1.61003C7.08163 0.496713 6.07812 -0.0808679 4.71778 0.0187357C3.64763 0.0971427 2.85278 0.550659 2.50577 1.28084L2.36255 1.58221L2.89197 1.59647L3.42138 1.61079L3.66357 1.39254C3.98262 1.10498 4.38731 0.978056 4.96833 0.98328C5.49434 0.988001 5.82792 1.1188 6.11761 1.43383C6.41121 1.75309 6.48041 1.9544 6.50937 2.57368L6.53458 3.11308L4.43606 3.12619L2.33755 3.1393L2.32332 3.81739C2.31545 4.19034 2.33319 4.6537 2.3627 4.84708C2.42254 5.23927 2.63405 5.73678 2.86531 6.02952C3.07682 6.29719 3.56169 6.60936 3.95861 6.73342C4.34176 6.85322 5.19608 6.9033 5.60238 6.82981ZM4.35574 5.82418C4.07231 5.74537 3.75737 5.4774 3.59617 5.17784C3.47771 4.95763 3.44714 4.82925 3.42634 4.46383L3.40104 4.0183L4.96753 4.0183L6.53402 4.0183L6.51168 4.45781C6.48036 5.07527 6.29786 5.41954 5.85052 5.70484C5.53082 5.90882 4.85433 5.96281 4.35574 5.82418Z" fill="#44DD00"/>
</g>
<defs>
<clipPath id="clip0_3_29">
<rect width="16" height="16" fill="white"/>
</clipPath>
</defs>
</svg>
