<svg width="256" height="256" viewBox="0 0 256 256" fill="none" xmlns="http://www.w3.org/2000/svg">
<g clip-path="url(#clip0_3_21)">
<path fill-rule="evenodd" clip-rule="evenodd" d="M181.718 255.807C190.058 254.699 197.549 251.322 202.992 246.218C208.066 241.461 210.347 236.078 210.808 227.765C211.643 212.753 204.707 202.507 190.537 197.82C187.892 196.944 179.691 195.302 172.315 194.169C164.939 193.038 157.547 191.544 155.89 190.849C149.741 188.274 146.84 183.976 146.845 177.448C146.849 170.73 150.969 165.623 158.467 163.042C163.177 161.42 179.852 161.668 184.469 163.428C189.344 165.286 192.863 168.138 194.471 171.537L195.824 174.394L204.606 174.394C214.676 174.394 214.621 174.449 211.87 167.194C208.652 158.704 200.581 151.858 189.769 148.448C184.89 146.91 182.327 146.669 170.894 146.672C160.348 146.676 156.697 146.975 152.889 148.15C142.003 151.507 135.442 156.626 131.764 164.632C129.041 170.56 128.37 181.561 130.322 188.289C134.043 201.119 144.389 207.029 169.291 210.547C183.116 212.5 187.517 213.828 190.5 216.949C194.527 221.163 194.307 230.186 190.06 235.036C186.403 239.21 181.166 240.695 170.092 240.696C161.45 240.696 160.571 240.545 156.062 238.285C152.838 236.67 150.612 234.88 149.312 232.861L147.375 229.847L138.353 229.847L129.332 229.847L130.139 232.861C131.384 237.51 134.285 241.989 138.782 246.205C146.303 253.256 156.422 256.417 170.894 256.234C175.524 256.175 180.395 255.983 181.718 255.807ZM90.4029 255.186C97.6509 253.867 105.477 250.129 110.536 245.57C114.607 241.9 119.581 233.745 119.581 230.739C119.581 229.122 119.193 229.043 111.217 229.043C103.67 229.043 102.805 229.194 102.364 230.588C101.532 233.214 95.9608 237.606 91.1935 239.394C87.8301 240.655 84.8195 241.098 79.6088 241.098C69.8329 241.098 64.8187 239.471 60.1412 234.781C55.7476 230.375 54.6491 227.103 54.6435 218.395L54.6387 212.166L71.2753 212.15C90.0013 212.133 96.8443 211.389 103.657 208.63C112.326 205.121 117.697 199.934 121.09 191.798C123.909 185.04 123.982 173.174 121.249 166.129C118.752 159.694 112.225 152.77 106.026 149.981C92.5853 143.935 74.1673 145.801 63.4709 154.292C60.1011 156.968 55.8566 163.121 55.0091 166.559C53.8193 171.388 53.0352 168.275 53.0352 158.723L53.0352 148.677L45.0176 148.677L37 148.677L37.012 187.052C37.0248 228.523 37.3327 232.188 41.388 239.124C49.1066 252.327 69.4617 258.997 90.4029 255.186ZM54.6467 189.061C54.6532 180.806 54.8929 179.113 56.5525 175.6C60.9189 166.359 71.3274 160.8 84.3584 160.751C98.4815 160.699 105.952 167.412 105.952 180.157C105.952 188.721 100.402 195.74 92.0554 197.734C90.6587 198.067 81.6685 198.376 72.0771 198.422L54.6387 198.504L54.6467 189.061ZM165.987 139.735C171.666 138.789 179.198 134.694 182.167 130.936C186.637 125.279 187.234 122.859 187.701 108.494L188.132 95.2338L203.566 95.0152L219 94.7974L219 87.1972L219 79.597L203.566 79.3792L188.132 79.1606L187.925 39.5803L187.716 2.62443e-05L179.313 2.55075e-05L170.91 2.47707e-05L170.701 39.5803L170.493 79.1606L149.046 79.3744L127.599 79.589L127.599 87.1972L127.599 94.8055L149.046 95.02L170.493 95.2338L170.493 105.681C170.493 124.068 170.484 124.076 145.839 124.421L127.599 124.676L127.599 132.659L127.599 140.641L144.637 140.547C154.007 140.495 163.615 140.13 165.987 139.735ZM89.6381 109.277C104.381 106.611 114.816 97.9614 119.72 84.341C121.517 79.3519 121.586 78.2685 121.586 55.0508C121.586 31.833 121.517 30.7497 119.72 25.7606C113.306 7.94741 97.25 -1.29389 75.4846 0.299771C58.3621 1.55428 45.6446 8.81055 40.0924 20.4934L37.8009 25.3153L46.2715 25.5436L54.7422 25.7726L58.6171 22.2807C63.7219 17.6798 70.1969 15.6489 79.4934 15.7325C87.9095 15.808 93.2468 17.9008 97.8818 22.9413C102.579 28.0494 103.687 31.2705 104.15 41.1788L104.553 49.8093L70.9771 50.0191L37.4008 50.2288L37.1731 61.0782C37.0473 67.0454 37.3311 74.4592 37.8033 77.5533C38.7606 83.8283 42.1449 91.7885 45.845 96.4723C49.2292 100.755 56.9871 105.75 63.3379 107.735C69.4681 109.651 83.1374 110.453 89.6381 109.277ZM69.6918 93.1869C65.157 91.926 60.118 87.6384 57.5387 82.8454C55.6433 79.3221 55.1543 77.268 54.8215 71.4213L54.4167 64.2929L79.4805 64.2929L104.544 64.2929L104.187 71.3249C103.686 81.2043 100.766 86.7126 93.6084 91.2774C88.4931 94.5411 77.6694 95.405 69.6918 93.1869Z" fill="#44DD00"/>
</g>
<defs>
<clipPath id="clip0_3_21">
<rect width="256" height="256" fill="white"/>
</clipPath>
</defs>
</svg>
