<svg width="32" height="32" viewBox="0 0 32 32" fill="none" xmlns="http://www.w3.org/2000/svg">
<g clip-path="url(#clip0_3_27)">
<path fill-rule="evenodd" clip-rule="evenodd" d="M22.7148 31.9759C23.7572 31.8373 24.6936 31.4153 25.374 30.7773C26.0083 30.1826 26.2933 29.5097 26.351 28.4706C26.4554 26.5941 25.5884 25.3134 23.8172 24.7274C23.4865 24.618 22.4614 24.4127 21.5394 24.2712C20.6173 24.1297 19.6934 23.943 19.4863 23.8562C18.7176 23.5342 18.355 22.9971 18.3556 22.181C18.3562 21.3412 18.8711 20.7029 19.8084 20.3802C20.3971 20.1775 22.4815 20.2086 23.0586 20.4285C23.6681 20.6607 24.1078 21.0172 24.3089 21.4421L24.478 21.7993L25.5757 21.7993C26.8345 21.7993 26.8276 21.8061 26.4837 20.8992C26.0815 19.838 25.0726 18.9823 23.7212 18.556C23.1112 18.3638 22.7908 18.3336 21.3618 18.334C20.0435 18.3345 19.5871 18.3719 19.1111 18.5188C17.7503 18.9384 16.9302 19.5783 16.4705 20.5789C16.1302 21.32 16.0463 22.6951 16.2902 23.5361C16.7554 25.1398 18.0486 25.8786 21.1613 26.3184C22.8894 26.5625 23.4396 26.7286 23.8125 27.1186C24.3159 27.6453 24.2884 28.7733 23.7574 29.3795C23.3003 29.9013 22.6457 30.0869 21.2616 30.087C20.1813 30.0871 20.0713 30.0682 19.5077 29.7857C19.1047 29.5838 18.8265 29.36 18.6641 29.1076L18.4218 28.7309L17.2941 28.7309L16.1665 28.7309L16.2674 29.1076C16.423 29.6887 16.7856 30.2486 17.3478 30.7756C18.2878 31.657 19.5527 32.0521 21.3618 32.0292C21.9406 32.0219 22.5494 31.9979 22.7148 31.9759ZM11.3004 31.8982C12.2064 31.7334 13.1846 31.2661 13.817 30.6962C14.3259 30.2375 14.9477 29.2181 14.9477 28.8424C14.9477 28.6403 14.8991 28.6304 13.9021 28.6304C12.9587 28.6304 12.8506 28.6493 12.7954 28.8235C12.6915 29.1517 11.9951 29.7008 11.3992 29.9242C10.9788 30.0819 10.6024 30.1373 9.9511 30.1373C8.72911 30.1373 8.10233 29.9339 7.51765 29.3476C6.96844 28.7969 6.83114 28.3878 6.83044 27.2994L6.82984 26.5208L8.90941 26.5188C11.2502 26.5166 12.1055 26.4236 12.9571 26.0788C14.0407 25.6401 14.7122 24.9917 15.1363 23.9747C15.4886 23.13 15.4978 21.6467 15.1561 20.7661C14.8441 19.9617 14.0282 19.0962 13.2533 18.7476C11.5732 17.9919 9.2709 18.2251 7.93386 19.2866C7.51264 19.621 6.98207 20.3901 6.87614 20.8198C6.72741 21.4235 6.6294 21.0343 6.6294 19.8404L6.6294 18.5847L5.62719 18.5847L4.62499 18.5847L4.62649 23.3815C4.6281 28.5653 4.66658 29.0235 5.1735 29.8906C6.13832 31.5409 8.68271 32.3746 11.3004 31.8982ZM6.83084 23.6327C6.83164 22.6008 6.86161 22.3891 7.06906 21.95C7.61486 20.7948 8.91592 20.1001 10.5448 20.0939C12.3102 20.0874 13.2439 20.9265 13.2439 22.5196C13.2439 23.5902 12.5502 24.4676 11.5069 24.7167C11.3323 24.7584 10.2086 24.7971 9.00963 24.8028L6.82984 24.813L6.83084 23.6327ZM20.7484 17.4669C21.4583 17.3486 22.3998 16.8367 22.7709 16.3671C23.3296 15.6598 23.4043 15.3574 23.4626 13.5618L23.5165 11.9042L25.4458 11.8769L27.375 11.8497L27.375 10.8997L27.375 9.94962L25.4458 9.9224L23.5165 9.89508L23.4906 4.94754L23.4645 3.28054e-06L22.4141 3.18844e-06L21.3637 3.09634e-06L21.3376 4.94754L21.3117 9.89508L18.6308 9.9218L15.9499 9.94862L15.9499 10.8997L15.9499 11.8507L18.6308 11.8775L21.3117 11.9042L21.3117 13.2102C21.3117 15.5085 21.3105 15.5095 18.2299 15.5526L15.9499 15.5845L15.9499 16.5823L15.9499 17.5801L18.0796 17.5683C19.2508 17.5619 20.4519 17.5162 20.7484 17.4669ZM11.2048 13.6596C13.0476 13.3264 14.352 12.2452 14.965 10.5426C15.1896 9.91898 15.1982 9.78357 15.1982 6.88135C15.1982 3.97913 15.1896 3.84371 14.965 3.22007C14.1633 0.993426 12.1562 -0.161736 9.43557 0.0374713C7.29526 0.194285 5.70557 1.10132 5.01154 2.56167L4.72511 3.16442L5.78394 3.19295L6.84277 3.22158L7.32713 2.78509C7.96523 2.20997 8.77461 1.95611 9.93667 1.96656C10.9887 1.976 11.6558 2.23759 12.2352 2.86766C12.8224 3.50617 12.9608 3.90881 13.0187 5.14735L13.0692 6.22616L8.87213 6.25238L4.6751 6.2786L4.64664 7.63478C4.6309 8.38068 4.66638 9.3074 4.72541 9.69416C4.84507 10.4785 5.2681 11.4736 5.73062 12.059C6.15365 12.5944 7.12338 13.2187 7.91723 13.4668C8.68351 13.7064 10.3922 13.8066 11.2048 13.6596ZM8.71147 11.6484C8.14463 11.4907 7.51474 10.9548 7.19233 10.3557C6.95541 9.91527 6.89428 9.6585 6.85269 8.92767L6.80208 8.03661L9.93506 8.03661L13.0681 8.03661L13.0234 8.91561C12.9607 10.1505 12.5957 10.8391 11.701 11.4097C11.0616 11.8176 9.70867 11.9256 8.71147 11.6484Z" fill="#44DD00"/>
</g>
<defs>
<clipPath id="clip0_3_27">
<rect width="32" height="32" fill="white"/>
</clipPath>
</defs>
</svg>
