<svg width="512" height="512" viewBox="0 0 512 512" fill="none" xmlns="http://www.w3.org/2000/svg">
<g clip-path="url(#clip0_3_19)">
<path fill-rule="evenodd" clip-rule="evenodd" d="M363.436 511.614C380.116 509.397 395.098 502.645 405.984 492.437C416.133 482.921 420.693 472.156 421.617 455.529C423.286 425.506 409.414 405.015 381.075 395.639C375.783 393.889 359.383 390.603 344.63 388.339C329.878 386.076 315.095 383.087 311.78 381.699C299.481 376.547 293.68 367.953 293.689 354.897C293.699 341.459 301.938 331.247 316.934 326.084C326.353 322.84 359.705 323.337 368.938 326.855C378.689 330.571 385.725 336.276 388.942 343.073L391.649 348.789L409.212 348.789C429.352 348.789 429.242 348.898 423.74 334.387C417.303 317.408 401.162 303.716 379.539 296.896C369.78 293.82 364.653 293.338 341.789 293.344C320.696 293.352 313.393 293.95 305.778 296.3C284.006 303.014 270.884 313.253 263.529 329.263C258.083 341.12 256.741 363.121 260.644 376.578C268.086 402.237 288.778 414.057 338.582 421.094C366.231 425 375.035 427.657 381 433.898C389.054 442.325 388.615 460.372 380.119 470.073C372.806 478.421 362.331 481.39 340.185 481.391C322.901 481.393 321.142 481.091 312.123 476.571C305.676 473.34 301.224 469.761 298.625 465.722L294.749 459.694L276.706 459.694L258.664 459.694L260.278 465.722C262.769 475.02 268.57 483.977 277.564 492.409C292.605 506.512 312.843 512.834 341.789 512.467C351.049 512.35 360.79 511.966 363.436 511.614ZM180.806 510.371C195.302 507.734 210.954 500.258 221.072 491.14C229.215 483.801 239.163 467.49 239.163 461.478C239.163 458.244 238.385 458.087 222.434 458.087C207.34 458.087 205.609 458.389 204.727 461.176C203.065 466.427 191.922 475.213 182.387 478.787C175.66 481.311 169.639 482.197 159.218 482.197C139.666 482.197 129.638 478.942 120.283 469.561C111.495 460.75 109.298 454.205 109.287 436.79L109.278 424.333L142.551 424.301C180.003 424.265 193.689 422.777 207.314 417.261C224.651 410.242 235.395 399.868 242.181 383.595C247.817 370.079 247.965 346.347 242.498 332.258C237.505 319.388 224.451 305.539 212.052 299.962C185.171 287.87 148.335 291.602 126.942 308.585C120.202 313.936 111.713 326.241 110.018 333.117C107.639 342.776 106.071 336.549 106.071 317.446L106.071 297.355L90.0353 297.355L74.0001 297.355L74.0241 374.104C74.0498 457.045 74.6656 464.376 82.7762 478.249C98.2133 504.654 138.924 517.993 180.806 510.371ZM109.294 378.122C109.306 361.612 109.786 358.225 113.105 351.2C121.838 332.717 142.655 321.601 168.717 321.503C196.963 321.398 211.903 334.824 211.903 360.313C211.903 377.443 200.804 391.481 184.111 395.467C181.318 396.134 163.337 396.753 144.154 396.845L109.278 397.008L109.294 378.122ZM331.975 279.47C343.333 277.578 358.396 269.387 364.334 261.873C373.274 250.557 374.469 245.718 375.402 216.988L376.264 190.468L407.132 190.03L438 189.595L438 174.394L438 159.194L407.132 158.758L376.264 158.321L375.849 79.1606L375.432 5.24886e-05L358.626 5.1015e-05L341.819 4.95414e-05L341.402 79.1606L340.987 158.321L298.093 158.749L255.198 159.178L255.198 174.394L255.198 189.611L298.093 190.04L340.987 190.468L340.987 211.363C340.987 248.137 340.968 248.151 291.679 248.842L255.198 249.352L255.198 265.317L255.198 281.281L289.273 281.093C308.014 280.99 327.23 280.259 331.975 279.47ZM179.276 218.554C208.762 213.222 229.632 195.923 239.441 168.682C243.034 158.704 243.172 156.537 243.172 110.102C243.172 63.666 243.034 61.4994 239.441 51.5211C226.612 15.8948 194.5 -2.58777 150.969 0.599541C116.724 3.10857 91.2893 17.6211 80.1849 40.9867L75.602 50.6307L92.5433 51.0871L109.485 51.5452L117.234 44.5614C127.444 35.3595 140.394 31.2978 158.987 31.4649C175.819 31.616 186.494 35.8015 195.764 45.8826C205.159 56.0988 207.373 62.5409 208.3 82.3576L209.107 99.6186L141.954 100.038L74.8019 100.458L74.3465 122.156C74.0947 134.091 74.6624 148.918 75.6068 155.107C77.5214 167.657 84.2899 183.577 91.6902 192.945C98.4587 201.51 113.974 211.499 126.676 215.47C138.936 219.303 166.275 220.905 179.276 218.554ZM139.384 186.374C130.314 183.852 120.236 175.277 115.078 165.691C111.287 158.644 110.309 154.536 109.643 142.843L108.833 128.586L158.961 128.586L209.089 128.586L208.374 142.65C207.372 162.409 201.532 173.425 187.217 182.555C176.986 189.082 155.339 190.81 139.384 186.374Z" fill="#44DD00"/>
</g>
<defs>
<clipPath id="clip0_3_19">
<rect width="512" height="512" fill="white"/>
</clipPath>
</defs>
</svg>
