<svg width="64" height="64" viewBox="0 0 64 64" fill="none" xmlns="http://www.w3.org/2000/svg">
<g clip-path="url(#clip0_3_25)">
<path fill-rule="evenodd" clip-rule="evenodd" d="M45.4295 63.9517C47.5145 63.6747 49.3872 62.8306 50.748 61.5546C52.0166 60.3652 52.5866 59.0195 52.7021 56.9412C52.9108 53.1883 51.1767 50.6268 47.6344 49.4549C46.9729 49.2361 44.9228 48.8254 43.0787 48.5423C41.2347 48.2594 39.3868 47.8859 38.9725 47.7123C37.4351 47.0684 36.7099 45.9941 36.7111 44.3621C36.7124 42.6824 37.7422 41.4058 39.6167 40.7605C40.7941 40.355 44.9631 40.4171 46.1172 40.8569C47.3361 41.3214 48.2156 42.0345 48.6177 42.8842L48.9561 43.5986L51.1515 43.5986C53.669 43.5986 53.6552 43.6123 52.9675 41.7984C52.1629 39.6759 50.1453 37.9645 47.4423 37.1121C46.2225 36.7275 45.5816 36.6672 42.7236 36.668C40.087 36.669 39.1742 36.7438 38.2223 37.0375C35.5007 37.8767 33.8605 39.1566 32.9411 41.1579C32.2604 42.64 32.0926 45.3902 32.5805 47.0722C33.5107 50.2796 36.0972 51.7572 42.3227 52.6368C45.7789 53.125 46.8793 53.4571 47.6249 54.2373C48.6318 55.2907 48.5768 57.5465 47.5149 58.7591C46.6007 59.8026 45.2914 60.1737 42.5231 60.1739C40.3626 60.1741 40.1427 60.1363 39.0154 59.5714C38.2094 59.1675 37.653 58.7201 37.3281 58.2152L36.8436 57.4618L34.5883 57.4618L32.3329 57.4618L32.5348 58.2152C32.8461 59.3775 33.5712 60.4972 34.6955 61.5512C36.5756 63.314 39.1054 64.1042 42.7236 64.0584C43.8811 64.0437 45.0988 63.9957 45.4295 63.9517ZM22.6007 63.7964C24.4127 63.4667 26.3692 62.5323 27.634 61.3925C28.6518 60.4751 29.8954 58.4362 29.8954 57.6848C29.8954 57.2805 29.7982 57.2608 27.8042 57.2608C25.9174 57.2608 25.7011 57.2986 25.5909 57.647C25.383 58.3034 23.9902 59.4016 22.7984 59.8484C21.9575 60.1639 21.2049 60.2746 19.9022 60.2746C17.4582 60.2746 16.2047 59.8677 15.0353 58.6952C13.9369 57.5938 13.6623 56.7756 13.6609 54.5987L13.6597 53.0416L17.8188 53.0376C22.5003 53.0332 24.2111 52.8471 25.9142 52.1576C28.0814 51.2802 29.4243 49.9835 30.2726 47.9494C30.9771 46.2599 30.9956 43.2934 30.3123 41.5322C29.6881 39.9235 28.0563 38.1924 26.5065 37.4952C23.1463 35.9837 18.5418 36.4502 15.8677 38.5731C15.0253 39.242 13.9641 40.7802 13.7523 41.6397C13.4548 42.847 13.2588 42.0686 13.2588 39.6808L13.2588 37.1693L11.2544 37.1693L9.24998 37.1693L9.25299 46.763C9.25619 57.1306 9.33317 58.047 10.347 59.7811C12.2766 63.0818 17.3654 64.7492 22.6007 63.7964ZM13.6617 47.2653C13.6633 45.2015 13.7232 44.7782 14.1381 43.9C15.2297 41.5897 17.8318 40.2001 21.0896 40.1879C24.6204 40.1748 26.4879 41.8531 26.4879 45.0392C26.4879 47.1803 25.1004 48.9351 23.0138 49.4334C22.6647 49.5168 20.4171 49.5941 18.0193 49.6056L13.6597 49.6261L13.6617 47.2653ZM41.4969 34.9337C42.9166 34.6973 44.7995 33.6734 45.5418 32.7341C46.6592 31.3197 46.8085 30.7147 46.9252 27.1236L47.033 23.8085L50.8915 23.7538L54.75 23.6994L54.75 21.7993L54.75 19.8992L50.8915 19.8448L47.033 19.7902L46.9811 9.89508L46.929 6.56107e-06L44.8282 6.37687e-06L42.7274 6.19268e-06L42.6753 9.89508L42.6233 19.7902L37.2616 19.8436L31.8998 19.8972L31.8998 21.7993L31.8998 23.7014L37.2616 23.755L42.6233 23.8085L42.6233 26.4204C42.6233 31.0171 42.6209 31.0189 36.4598 31.1053L31.8998 31.169L31.8998 33.1647L31.8998 35.1602L36.1591 35.1367C38.5017 35.1238 40.9038 35.0324 41.4969 34.9337ZM22.4095 27.3192C26.0952 26.6528 28.7039 24.4904 29.93 21.0853C30.3792 19.838 30.3965 19.5671 30.3965 13.7627C30.3965 7.95825 30.3792 7.68742 29.93 6.44014C28.3265 1.98685 24.3125 -0.323472 18.8711 0.0749426C14.5905 0.388571 11.4111 2.20264 10.0231 5.12334L9.45022 6.32883L11.5679 6.38589L13.6855 6.44315L14.6543 5.57018C15.9305 4.41994 17.5492 3.91222 19.8733 3.93312C21.9774 3.952 23.3117 4.47519 24.4704 5.73533C25.6448 7.01235 25.9216 7.81762 26.0375 10.2947L26.1383 12.4523L17.7443 12.5048L9.35021 12.5572L9.29328 15.2696C9.26181 16.7614 9.33277 18.6148 9.45083 19.3883C9.69015 20.9571 10.5362 22.9471 11.4612 24.1181C12.3073 25.1887 14.2468 26.4374 15.8345 26.9337C17.367 27.4129 20.7843 27.6132 22.4095 27.3192ZM17.4229 23.2967C16.2893 22.9815 15.0295 21.9096 14.3847 20.7113C13.9108 19.8305 13.7886 19.317 13.7054 17.8553L13.6042 16.0732L19.8701 16.0732L26.1361 16.0732L26.0467 17.8312C25.9214 20.3011 25.1914 21.6782 23.4021 22.8193C22.1233 23.6353 19.4173 23.8512 17.4229 23.2967Z" fill="#44DD00"/>
</g>
<defs>
<clipPath id="clip0_3_25">
<rect width="64" height="64" fill="white"/>
</clipPath>
</defs>
</svg>
